<svg width="60" height="60" viewBox="0 0 60 60" fill="none" xmlns="http://www.w3.org/2000/svg">
<path d="M58.4063 11.1562L55.6758 6.44531C54.8438 5.00391 53.2852 4.11328 51.6211 4.11328L9.55081 4.125V4.11328C9.46878 4.11328 9.38675 4.11328 9.30472 4.125H8.57815C6.94925 4.125 5.40237 4.99219 4.57034 6.38672L1.64065 11.2266C0.750029 12.7266 0.73831 14.5781 1.62894 16.043L23.6133 53.5898C24.4688 55.0195 25.9688 55.875 27.6446 55.875H32.6836C34.3477 55.875 35.8946 54.9844 36.7266 53.5547L57.8672 16.8047L58.4063 15.8789C59.25 14.4258 59.2617 12.6211 58.4063 11.1562ZM51.6211 5.98828C52.6172 5.98828 53.5547 6.52734 54.0586 7.38281L56.7891 12.0937C56.9883 12.4336 57.1055 12.7969 57.1524 13.1719C56.6719 12.7969 56.0742 12.5859 55.4297 12.5859C55.418 12.5859 55.418 12.5859 55.4063 12.5859H23.8477C22.8282 12.5859 21.9141 13.1133 21.4102 14.0039C20.9063 14.8945 20.9063 15.9492 21.4336 16.8398L28.9922 29.5781L26.086 34.6055C25.8399 35.0273 25.4414 35.0742 25.2774 35.0742C25.1133 35.0742 24.7149 35.0273 24.4688 34.5937L8.76565 7.40625C8.51956 6.98437 8.6719 6.59766 8.75393 6.45703C8.82425 6.32812 9.02347 6.05859 9.4219 6L51.6211 5.98828ZM30.0586 27.7148L27.1055 22.7227H32.9297L30.0586 27.7148ZM3.2344 12.1875L6.16409 7.34766C6.31644 7.08984 6.51565 6.86719 6.73831 6.66797C6.67972 7.24219 6.80862 7.82812 7.11331 8.34375L22.8164 35.5078C23.3203 36.3984 24.2227 36.9258 25.2422 36.9375H25.2539C26.2735 36.9375 27.1758 36.4102 27.6914 35.5312L35.0977 22.7109H40.8516C41.3438 22.7109 41.5782 23.0391 41.6602 23.1797C41.7422 23.3203 41.9063 23.6836 41.6602 24.1055L25.9805 51.293L25.9453 51.3516C25.7696 51.7148 25.418 51.7617 25.2774 51.7734C24.9375 51.7851 24.6211 51.6094 24.4453 51.3047H24.4336L3.22269 15.0937C2.69534 14.2031 2.70706 13.0898 3.2344 12.1875ZM35.0977 52.6172C34.6055 53.4726 33.668 54 32.6719 54H27.6328C27.0586 54 26.5196 53.8242 26.0625 53.5195C26.7305 53.3086 27.293 52.8516 27.6211 52.1953L43.3008 25.043C43.8047 24.1641 43.8047 23.1094 43.2891 22.2422C42.7852 21.3633 41.8711 20.8477 40.8516 20.8477H25.9805L23.0391 15.8789C22.793 15.457 22.9453 15.0703 23.0274 14.9297C23.1094 14.7891 23.3555 14.4609 23.8477 14.4609H55.418C55.9102 14.4609 56.1563 14.7891 56.2383 14.9297C56.3203 15.0703 56.4844 15.4453 56.2383 15.8672L35.0977 52.6172Z" fill="white"/>
</svg>
