<svg width="90" height="59" viewBox="0 0 90 59" fill="none" xmlns="http://www.w3.org/2000/svg">
<path d="M55.6597 39.4082C54.808 38.2783 53.5216 37.6352 52.131 37.6352C50.7752 37.6352 49.7322 37.9133 48.724 38.1914C47.5767 38.5043 46.3947 38.8172 44.5 38.8172C42.6052 38.8172 41.4232 38.5043 40.2759 38.1914C39.2677 37.9133 38.2248 37.6352 36.8689 37.6352C35.4783 37.6352 34.192 38.2783 33.3402 39.4082L32.2799 40.8336C31.8279 41.442 31.9496 42.3285 32.558 42.7805C32.8013 42.9717 33.0968 43.0586 33.3924 43.0586C33.8095 43.0586 34.2441 42.8674 34.5049 42.5024L35.5652 41.077C35.8781 40.6598 36.3474 40.4164 36.8689 40.4164C37.8597 40.4164 38.6072 40.625 39.5459 40.8684C40.7974 41.1986 42.2228 41.5811 44.4652 41.5984C44.4652 41.5984 44.4652 41.5984 44.4826 41.5984H44.5174C44.5174 41.5984 44.5174 41.5984 44.5347 41.5984C46.7945 41.5984 48.2025 41.216 49.4541 40.8684C50.3927 40.6076 51.1402 40.4164 52.131 40.4164C52.6525 40.4164 53.1218 40.6598 53.4347 41.077L54.4951 42.5024C54.7732 42.8674 55.1904 43.0586 55.6076 43.0586C55.9031 43.0586 56.1812 42.9717 56.442 42.7805C57.0504 42.3285 57.1894 41.4594 56.7201 40.8336L55.6597 39.4082Z" fill="#111111"/>
<path d="M88.0613 24.3894C87.5224 23.5898 84.7064 19.5918 81.1256 19.7482C78.4834 19.8525 72.6254 21.5908 71.7215 21.8516C71.6867 21.8516 71.6345 21.8689 71.565 21.8689C69.9136 22.0254 68.3492 21.0172 67.7408 19.4353C67.0455 17.6102 65.6027 14.0641 63.8123 10.8656C63.117 9.63144 62.2478 8.31035 61.1179 6.81542C59.0842 4.12109 56.1291 2.26113 52.7916 1.5832C52.6699 1.56582 52.5134 1.53105 52.3222 1.4789C50.8273 1.16601 47.7158 0.505463 44.5347 0.505463C41.3537 0.505463 38.2422 1.16601 36.7472 1.4789C36.556 1.51367 36.3996 1.54843 36.2779 1.5832C32.9578 2.26113 30.0027 4.12109 27.9689 6.81542C26.9086 8.18867 26.0047 9.56191 25.2572 10.883C23.5015 14.0293 22.0761 17.5059 21.3634 19.3658L21.3461 19.3484C21.3287 19.3832 21.2592 19.557 21.1549 19.8351C20.4422 21.191 18.9994 22.0254 17.5045 21.8863C17.4523 21.8689 17.4002 21.8689 17.348 21.8689C16.4441 21.5908 10.5861 19.8525 7.94392 19.7656C5.56247 19.6787 3.52869 21.3822 2.27712 22.7902C2.10329 22.9293 1.94685 23.0857 1.84255 23.2943C1.44275 23.781 1.16462 24.1809 1.02556 24.3894C0.677904 24.9109 -0.39983 26.6318 0.191185 27.9877C0.451928 28.5787 0.973412 28.9785 1.63396 29.0828H1.65134C1.7904 29.1002 1.96423 29.1176 2.22497 29.135C6.01443 29.4131 8.34372 30.1605 9.16072 31.36C10.3427 33.0809 14.9144 38.1914 21.798 40.9553C22.1283 41.0769 22.4064 41.3551 22.5455 41.7201C23.3799 43.8582 25.1181 47.8041 27.2736 50.1855L27.5691 50.4984C30.4894 53.6969 34.8873 58.5467 44.5347 58.5467C54.0605 58.5467 58.5105 53.7664 61.4656 50.6027C61.5873 50.4637 61.7263 50.3246 61.848 50.1855C64.0209 47.8041 65.7418 43.8582 66.5761 41.7375C66.7152 41.3898 66.9933 41.0943 67.341 40.9727C74.2246 38.2088 78.7963 33.0982 79.9609 31.3773C80.7605 30.1953 83.0724 29.4478 86.8097 29.1697C87.1052 29.1523 87.3138 29.135 87.4703 29.1002C88.1134 29.0133 88.6349 28.6309 88.8957 28.0572C89.4519 26.7361 88.4959 25.05 88.0613 24.3894ZM50.7925 25.3803C50.8099 25.3281 50.8447 25.2934 50.8621 25.276L50.9664 25.1543C51.9572 23.868 53.4869 23.2074 55.4859 23.2074C58.1455 23.2074 59.5883 24.5285 60.3531 25.7975C59.9185 26.91 57.1547 28.5266 55.5033 28.5266C53.9041 28.5266 51.0707 26.5797 50.7925 25.3803ZM63.03 24.8935C62.3347 23.5377 60.214 20.4262 55.4859 20.4262C52.4613 20.4262 50.5492 21.5734 49.3845 22.7555C49.0195 22.3035 48.6545 21.8689 48.2894 21.4691C48.7588 21.2605 49.1759 20.9998 49.4367 20.6174C50.8795 18.6357 54.1822 17.1234 55.0861 17.1234H55.173C56.1117 17.1234 58.0586 17.1234 60.9267 18.9312C63.4994 20.5652 65.4984 23.416 65.9851 24.1809C65.9851 24.2504 66.0025 24.3025 66.0025 24.3721L63.03 24.8935ZM27.6908 12.2215C28.3513 11.0221 29.1857 9.7705 30.1765 8.48418C31.8105 6.32871 34.1746 4.85117 36.8341 4.29492C36.9732 4.26015 37.1297 4.22539 37.3209 4.19062C38.7289 3.89511 41.6492 3.26933 44.5347 3.26933C47.4203 3.26933 50.3406 3.87773 51.7486 4.19062C51.9398 4.22539 52.1136 4.26015 52.2353 4.29492C54.8949 4.85117 57.259 6.32871 58.8929 8.48418C59.9359 9.8748 60.7529 11.0916 61.3787 12.2215C62.4216 14.1162 63.3603 16.1326 64.073 17.8187C63.5515 17.3842 62.9953 16.967 62.4216 16.6019C58.8756 14.3596 56.2855 14.3769 55.173 14.3769H55.0861C53.0871 14.3769 49.1412 16.4455 47.2638 18.8965C47.09 18.9834 46.725 19.1398 46.499 19.2268C45.5951 19.5744 44.7433 19.9047 44.5869 20.8607C44.5 21.3648 44.6912 21.8863 45.0736 22.234C45.908 23.0162 47.0205 24.1809 47.8896 25.4846C47.8027 26.2668 47.9418 27.1707 48.4459 28.1789C47.2465 28.4744 46.2904 28.2137 45.6994 27.9182C44.9345 27.5357 44.0133 27.5357 43.231 27.9182C42.64 28.2137 41.7013 28.4744 40.4845 28.1789C41.006 27.1707 41.1277 26.2668 41.0408 25.4846C41.9099 24.1635 43.0398 22.9988 43.8568 22.234C44.2566 21.8863 44.4304 21.3648 44.3435 20.8607C44.1871 19.9047 43.3353 19.5744 42.4314 19.2268C42.2054 19.1398 41.8404 19.0008 41.6666 18.8965C39.8066 16.4455 35.8607 14.3769 33.8443 14.3769H33.7574C32.6449 14.3769 30.0549 14.3769 26.5088 16.6019C25.9699 16.9496 25.4484 17.332 24.9617 17.7318C25.7439 16.0631 26.6652 14.0814 27.6908 12.2215ZM23.0148 24.1635C23.5363 23.3639 25.5006 20.5652 28.0558 18.9312C30.924 17.1234 32.8709 17.1234 33.8095 17.1234H33.8965C34.8004 17.1234 38.1031 18.6357 39.5459 20.6174C39.824 20.9998 40.2238 21.2432 40.6931 21.4691C40.3281 21.8689 39.9631 22.2861 39.598 22.7555C38.4334 21.5734 36.5213 20.4262 33.4967 20.4262C28.7685 20.4262 26.6478 23.5551 25.9525 24.8935L22.98 24.3894C22.9974 24.3025 23.0148 24.233 23.0148 24.1635ZM33.514 23.2074C35.5131 23.2074 37.0254 23.868 38.0336 25.1543L38.0857 25.2238L38.1552 25.2934C38.1552 25.2934 38.19 25.3281 38.2074 25.3803C37.9467 26.5797 35.0959 28.5266 33.4967 28.5266C31.8453 28.5266 29.0814 26.91 28.6468 25.7975C29.4117 24.5459 30.8545 23.2074 33.514 23.2074ZM11.4379 29.7781C9.64743 27.1359 5.28435 26.5797 3.04197 26.3885C3.1115 26.2494 3.19841 26.093 3.32009 25.9365L3.33747 25.9191C3.45915 25.7453 3.59822 25.5367 3.75466 25.3281C5.87536 25.5019 12.307 26.3363 16.0443 30.2996C16.3224 30.5951 16.6875 30.7342 17.0525 30.7342C17.4002 30.7342 17.7304 30.6125 18.0086 30.3518C18.5648 29.8303 18.5996 28.9437 18.0607 28.3875C14.7058 24.824 9.75173 23.416 6.48376 22.8598C6.93572 22.6338 7.38767 22.4947 7.83962 22.5121C9.87341 22.599 14.8797 24.007 16.6527 24.5459L16.7918 24.5807C16.8961 24.598 17.0004 24.6154 17.0525 24.6154L17.1742 24.6328C18.2172 24.7371 19.2601 24.5807 20.1988 24.2156C19.8164 27.3445 19.8164 31.9162 21.3113 37.6873C15.94 35.0973 12.3418 31.0818 11.4379 29.7781ZM59.7795 48.2734C59.6578 48.4125 59.5187 48.5516 59.397 48.6906C56.6158 51.6631 52.8263 55.748 44.5 55.748C36.1041 55.748 32.3494 51.6283 29.6029 48.6037L29.3074 48.2908C27.3779 46.1875 25.7439 42.3285 25.1181 40.7119C23.1713 35.1494 22.7019 30.5603 22.7888 27.1707L25.5006 27.64C25.8482 27.6922 26.1785 27.6922 26.5088 27.6227C27.0129 28.3701 27.7777 29.0828 28.7685 29.7086C30.3156 30.682 32.1234 31.2904 33.4967 31.2904C33.7922 31.2904 34.0877 31.2557 34.4179 31.2035C33.1316 32.7506 31.6888 34.6105 30.7502 36.1924C28.699 39.6516 27.1867 43.5627 27.1172 43.7191C26.839 44.4318 27.2041 45.2488 27.9168 45.5096C28.0732 45.5791 28.247 45.5965 28.4209 45.5965C28.9771 45.5965 29.4986 45.2488 29.7246 44.71C29.742 44.6752 31.2195 40.851 33.149 37.6004C34.5918 35.1668 37.4252 31.9162 38.7289 30.456C38.7984 30.4908 38.8506 30.5082 38.9201 30.543C39.8935 30.908 40.78 31.0471 41.5797 31.0471C42.8834 31.0471 43.8916 30.682 44.5174 30.3691C45.5082 30.8559 47.542 31.5164 50.0972 30.543C50.1668 30.5256 50.2189 30.4908 50.2884 30.456C51.5922 31.8988 54.4256 35.1494 55.8683 37.6004C57.7978 40.851 59.2754 44.6752 59.2927 44.71C59.5013 45.2662 60.0402 45.5965 60.5965 45.5965C60.7703 45.5965 60.9267 45.5617 61.1006 45.5096C61.8133 45.2314 62.1783 44.4318 61.9002 43.7191C61.8306 43.5627 60.3183 39.6342 58.2672 36.1924C57.3285 34.5932 55.9031 32.7506 54.5994 31.1861C54.9123 31.2383 55.2252 31.273 55.5207 31.273C56.8939 31.273 58.7017 30.6646 60.2488 29.6912C61.2396 29.048 62.0045 28.3527 62.5086 27.6053C62.8388 27.6748 63.1691 27.6748 63.5168 27.6227L66.2459 27.1533C66.3154 30.3518 65.8982 35.0103 63.8992 40.7293L63.9513 40.7467C63.2908 42.3807 61.6742 46.2049 59.7795 48.2734ZM77.6316 29.7781C76.7277 31.0992 73.1121 35.1494 67.706 37.7394C69.2009 31.9336 69.2009 27.3445 68.8185 24.1982C69.7746 24.598 70.8349 24.7545 71.9127 24.6502L72.0343 24.6328C72.1039 24.6328 72.1908 24.6154 72.2951 24.598L72.4342 24.5633C74.1898 24.0244 79.2134 22.6164 81.2472 22.5295C81.6818 22.5121 82.1338 22.6338 82.5857 22.8598C79.3004 23.416 74.3115 24.824 70.9392 28.4049C70.4177 28.9611 70.4351 29.8477 70.9914 30.3691C71.2521 30.6299 71.5998 30.7516 71.9474 30.7516C72.3125 30.7516 72.6949 30.6125 72.9556 30.317C76.7103 26.3189 83.2463 25.5019 85.3148 25.3281C85.4713 25.5367 85.6277 25.7453 85.732 25.9191C85.8363 26.093 85.9406 26.2494 86.0101 26.4059C82.8812 26.684 79.2656 27.3619 77.6316 29.7781Z" fill="#111111"/>
<path d="M55.5554 27.3271C56.5155 27.3271 57.2937 26.5489 57.2937 25.5889C57.2937 24.6288 56.5155 23.8506 55.5554 23.8506C54.5954 23.8506 53.8172 24.6288 53.8172 25.5889C53.8172 26.5489 54.5954 27.3271 55.5554 27.3271Z" fill="#111111"/>
<path d="M33.4445 27.3271C34.4045 27.3271 35.1828 26.5489 35.1828 25.5889C35.1828 24.6288 34.4045 23.8506 33.4445 23.8506C32.4845 23.8506 31.7062 24.6288 31.7062 25.5889C31.7062 26.5489 32.4845 27.3271 33.4445 27.3271Z" fill="#111111"/>
</svg>
