<svg width="70" height="70" viewBox="0 0 70 70" fill="none" xmlns="http://www.w3.org/2000/svg">
<g clip-path="url(#clip0)">
<path d="M68.2508 43.3203V24.6745H69.0349C69.5657 24.6745 70 24.2057 70 23.6328C70 23.0599 69.5657 22.5911 69.0349 22.5911H68.2508V20.0781C68.2508 19.5052 67.8165 19.0364 67.2857 19.0364C66.7549 19.0364 66.3207 19.5052 66.3207 20.0781V22.5911H65.5365C65.0057 22.5911 64.5715 23.0599 64.5715 23.6328C64.5715 24.2057 65.0057 24.6745 65.5365 24.6745H66.3207V43.3203C65.3315 43.737 64.6318 44.7786 64.6318 45.9896V47.0182H61.8693C61.7486 47.0182 61.6159 47.0182 61.4953 47.0182V28.5547H62.0019C62.5327 28.5547 62.967 28.0859 62.967 27.513C62.967 26.9401 62.5327 26.4713 62.0019 26.4713H61.4953V23.9713C61.4953 23.3984 61.061 22.9297 60.5302 22.9297C59.9994 22.9297 59.5651 23.3984 59.5651 23.9713V26.4713H59.0464C58.5156 26.4713 58.0813 26.9401 58.0813 27.513C58.0813 28.0859 58.5156 28.5547 59.0464 28.5547H59.5651V46.9401C56.6096 46.7448 53.6782 46.1719 50.8312 45.2344C50.3004 44.4922 49.4681 44.0104 48.5392 44.0104H46.5005L42.1818 3.09895C42.0129 1.43228 40.7583 0.15624 39.2383 0.0390523V0.0260315C39.2021 0.0260315 39.1538 0.0260315 39.1176 0.0260315C39.0815 0.0260315 39.0332 0.0260315 38.997 0.0260315V0.0390523C37.477 0.15624 36.2224 1.43228 36.0535 3.09895L31.7348 44.0234H29.6961C28.7672 44.0234 27.9349 44.5052 27.4041 45.2474C24.5571 46.1849 21.6257 46.7578 18.6701 46.9531V28.5547H19.1889C19.7197 28.5547 20.1539 28.0859 20.1539 27.513C20.1539 26.9401 19.7197 26.4713 19.1889 26.4713H18.6701V23.9713C18.6701 23.3984 18.2359 22.9297 17.7051 22.9297C17.1743 22.9297 16.74 23.3984 16.74 23.9713V26.4713H16.2333C15.7025 26.4713 15.2683 26.9401 15.2683 27.513C15.2683 28.0859 15.7025 28.5547 16.2333 28.5547H16.74V47.0182C16.6194 47.0182 16.4867 47.0182 16.366 47.0182H13.6035V45.9896C13.6035 44.7786 12.9038 43.737 11.9146 43.3203V24.6745H12.6988C13.2295 24.6745 13.6638 24.2057 13.6638 23.6328C13.6638 23.0599 13.2295 22.5911 12.6988 22.5911H11.9146V20.0781C11.9146 19.5052 11.4804 19.0364 10.9496 19.0364C10.4188 19.0364 9.98449 19.5052 9.98449 20.0781V22.5911H9.20036C8.66957 22.5911 8.23529 23.0599 8.23529 23.6328C8.23529 24.2057 8.66957 24.6745 9.20036 24.6745H9.98449V43.3203C8.99529 43.737 8.29561 44.7786 8.29561 45.9896V57.9687C8.29561 59.5443 9.48989 60.8333 10.9496 60.8333C11.9991 60.8333 12.9159 60.1693 13.3502 59.2057L19.2371 60.5859C22.6752 61.3932 26.2339 61.8229 29.8167 61.875V65.612C29.8167 66.1849 30.251 66.6536 30.7818 66.6536C31.3126 66.6536 31.7469 66.1849 31.7469 65.612V62.3958L32.3742 62.6823C34.4853 63.6458 36.705 64.1536 38.997 64.1797C39.0332 64.1797 39.0815 64.1797 39.1176 64.1797C39.1538 64.1797 39.2021 64.1797 39.2383 64.1797C41.5303 64.1406 43.7621 63.6458 45.8611 62.6823L46.4884 62.3958V65.612C46.4884 66.1849 46.9227 66.6536 47.4535 66.6536C47.9843 66.6536 48.4185 66.1849 48.4185 65.612V61.8489C52.1099 61.7708 55.7893 61.2891 59.3721 60.3906L64.8127 59.0234C65.1988 60.0781 66.1638 60.8333 67.2737 60.8333C68.7333 60.8333 69.9276 59.5443 69.9276 57.9687V45.9896C69.9397 44.7786 69.24 43.737 68.2508 43.3203ZM49.5042 47.1484V53.6198C49.5042 54.8437 48.5874 55.8333 47.4535 55.8333C46.3195 55.8333 45.4027 54.8437 45.4027 53.6198V47.1484C45.4027 46.5755 45.837 46.1068 46.3678 46.1068H48.5392C49.07 46.1068 49.5042 46.5755 49.5042 47.1484ZM39.1176 2.10936C39.7088 2.17447 40.2034 2.66926 40.2757 3.33332L40.8789 9.04947C40.3722 8.85416 39.7811 8.69791 39.1297 8.69791C38.4662 8.69791 37.8751 8.84114 37.3805 9.02343L37.9837 3.33332C38.0319 2.68228 38.5265 2.17447 39.1176 2.10936ZM28.731 47.1484C28.731 46.5755 29.1653 46.1068 29.6961 46.1068H31.8675C32.3983 46.1068 32.8326 46.5755 32.8326 47.1484V53.6198C32.8326 54.8437 31.9158 55.8333 30.7818 55.8333C29.6479 55.8333 28.731 54.8437 28.731 53.6198V47.1484ZM11.6734 57.9687C11.6734 58.3984 11.3477 58.75 10.9496 58.75C10.5515 58.75 10.2258 58.3984 10.2258 57.9687V45.9896C10.2258 45.5599 10.5515 45.2083 10.9496 45.2083C11.3477 45.2083 11.6734 45.5599 11.6734 45.9896V57.9687ZM13.6035 57.1224V49.1016H16.366C16.7521 49.1016 17.1381 49.0885 17.5241 49.0755C17.5844 49.0885 17.6448 49.1016 17.7051 49.1016C17.7895 49.1016 17.874 49.0885 17.9463 49.0625C20.9381 48.9323 23.9057 48.4375 26.8009 47.5911V53.6068C26.8009 55.612 28.0917 57.3047 29.8167 57.7734V59.7656C26.3787 59.7266 22.9527 59.3099 19.6473 58.5286L13.6035 57.1224ZM45.1132 60.7422C43.2071 61.6146 41.1926 62.0573 39.1176 62.0833C37.0427 62.0703 35.0281 61.6146 33.1221 60.7422L31.7469 60.1172V57.7864C33.472 57.3177 34.7627 55.625 34.7627 53.6198V47.1484C34.7627 46.1328 34.3043 45.2213 33.6047 44.6484L37.1031 11.4974C37.3202 11.3151 38.0802 10.7812 39.1176 10.7812C40.0586 10.7812 40.8548 11.3021 41.1322 11.5104L44.6306 44.6484C43.931 45.2213 43.4725 46.1198 43.4725 47.1484V53.6198C43.4725 55.625 44.7633 57.3177 46.4884 57.7864V60.1172L45.1132 60.7422ZM58.9378 58.3594C55.4998 59.2187 51.9652 59.7005 48.4185 59.7656V57.7864C50.1436 57.3177 51.4344 55.625 51.4344 53.6198V47.6042C54.3296 48.4505 57.2972 48.9453 60.2889 49.0755C60.3613 49.1016 60.4458 49.1146 60.5302 49.1146C60.5905 49.1146 60.6508 49.1016 60.7112 49.0885C61.0972 49.1016 61.4832 49.1146 61.8693 49.1146H64.6318V56.9401L58.9378 58.3594ZM68.0095 57.9687C68.0095 58.3984 67.6838 58.75 67.2857 58.75C66.8876 58.75 66.5619 58.3984 66.5619 57.9687V45.9896C66.5619 45.5599 66.8876 45.2083 67.2857 45.2083C67.6838 45.2083 68.0095 45.5599 68.0095 45.9896V57.9687Z" fill="#111111"/>
<path d="M41.5424 27.6302C41.3856 26.3281 40.3361 25.3385 39.1177 25.3385C37.8872 25.3385 36.8497 26.3151 36.6929 27.6172L35.8123 34.401C35.6193 35.8463 35.7882 37.3568 36.2828 38.75C36.6447 39.7656 37.5615 40.4427 38.5748 40.4427H39.1297H39.6846C40.698 40.4427 41.6148 39.7656 41.9767 38.75C42.4713 37.3568 42.6281 35.8594 42.4472 34.401L41.5424 27.6302ZM40.1551 37.9948C40.0827 38.2031 39.8777 38.3594 39.6726 38.3594H39.1177H38.5627C38.3577 38.3594 38.1526 38.2161 38.0802 37.9948C37.7062 36.9271 37.5856 35.7812 37.7304 34.6875L38.611 27.8906C38.6472 27.6172 38.8643 27.4219 39.1297 27.4219C39.3831 27.4219 39.6123 27.6302 39.6485 27.9036L40.5291 34.6875C40.6618 35.7943 40.5411 36.9401 40.1551 37.9948Z" fill="#111111"/>
<path d="M39.1176 43.0078C37.5253 43.0078 36.2224 44.414 36.2224 46.1328C36.2224 47.8515 37.5253 49.2578 39.1176 49.2578C40.71 49.2578 42.0129 47.8515 42.0129 46.1328C42.0129 44.414 40.71 43.0078 39.1176 43.0078ZM39.1176 47.1744C38.5868 47.1744 38.1526 46.7057 38.1526 46.1328C38.1526 45.5599 38.5868 45.0911 39.1176 45.0911C39.6484 45.0911 40.0827 45.5599 40.0827 46.1328C40.0827 46.7057 39.6484 47.1744 39.1176 47.1744Z" fill="#111111"/>
</g>
<defs>
<clipPath id="clip0">
<rect width="61.7647" height="66.6667" fill="white" transform="translate(8.23529)"/>
</clipPath>
</defs>
</svg>
