<svg width="70" height="70" viewBox="0 0 70 70" fill="none" xmlns="http://www.w3.org/2000/svg">
<g clip-path="url(#clip0)">
<path d="M39.4112 33.9584C36.6245 34.0886 34.996 34.5964 33.9827 35.6641C32.8125 36.875 32.8125 38.4115 32.8125 39.5313V39.5703C32.8125 41.0808 32.9693 42.6433 34.0912 43.7761C35.0201 44.7136 36.3471 45.1302 38.422 45.1302C38.7839 45.1302 39.182 45.1172 39.568 45.0912C42.6683 44.9089 44.7915 44.4532 45.7686 42.7604C46.3959 41.6797 46.408 40.3516 45.8048 38.8151C45.1534 37.0443 43.9109 33.763 39.4112 33.9584ZM44.1401 41.6537C43.5731 42.6302 41.5585 42.8907 39.4594 43.0209C39.0975 43.0469 38.7477 43.0599 38.422 43.0599C36.902 43.0599 35.949 42.8125 35.4182 42.2787C34.9357 41.7839 34.7426 41.0287 34.7426 39.5834V39.5313C34.7426 38.4636 34.7788 37.7214 35.3217 37.1615C35.949 36.4974 37.276 36.1459 39.4956 36.0417C42.6442 35.8985 43.4163 37.9558 44.0436 39.5964V39.6094C44.5502 40.9375 44.2486 41.4714 44.1401 41.6537Z" fill="#111111"/>
<path d="M35.7077 65.8984C36.2385 65.8984 36.6728 65.4297 36.6728 64.8568V60.4297C36.6728 59.8568 36.2385 59.388 35.7077 59.388C35.1769 59.388 34.7426 59.8568 34.7426 60.4297V64.8568C34.7426 65.4297 35.1769 65.8984 35.7077 65.8984Z" fill="#111111"/>
<path d="M30.8823 65.8985C31.4131 65.8985 31.8474 65.4297 31.8474 64.8568V57.8255C31.8474 57.2526 31.4131 56.7839 30.8823 56.7839C30.3515 56.7839 29.9173 57.2526 29.9173 57.8255V64.8568C29.9173 65.4297 30.3515 65.8985 30.8823 65.8985Z" fill="#111111"/>
<path d="M22.3414 33.9844C17.878 33.75 16.6113 37.0573 15.9237 38.8281L16.8164 39.2318L15.9237 38.8281C15.3326 40.3776 15.3447 41.7057 15.9599 42.7735C16.6958 44.0235 17.9866 44.8568 22.1605 45.1042C22.5827 45.1302 22.9567 45.1432 23.3186 45.1432C25.4056 45.1432 26.7325 44.7266 27.6494 43.7891C28.7712 42.6432 28.9281 41.0938 28.9281 39.5833V39.5443C28.9281 38.4245 28.9281 36.888 27.77 35.6901C26.7446 34.6224 25.116 34.1146 22.3414 33.9844ZM26.9979 39.5964C26.9979 41.0417 26.8049 41.7969 26.3224 42.2917C25.8036 42.8255 24.8506 43.0729 23.3186 43.0729C23.0049 43.0729 22.6672 43.0599 22.2811 43.0339C20.1942 42.9037 18.1796 42.6563 17.6005 41.6667C17.504 41.4974 17.2024 40.9766 17.7091 39.6224C18.3846 37.8776 19.1446 35.8985 22.257 36.0677C24.4646 36.1719 25.7916 36.5235 26.4309 37.2005C26.9617 37.7474 26.9979 38.4636 26.9979 39.5573V39.5964Z" fill="#111111"/>
<path d="M26.057 65.8984C26.5878 65.8984 27.022 65.4297 27.022 64.8568V60.4297C27.022 59.8568 26.5878 59.388 26.057 59.388C25.5262 59.388 25.0919 59.8568 25.0919 60.4297V64.8568C25.0919 65.4297 25.5262 65.8984 26.057 65.8984Z" fill="#111111"/>
<path d="M59.8225 58.4245L59.7019 58.0078C58.387 53.4896 57.2048 49.5313 56.1673 46.1849C55.7089 43.7891 53.0429 30.2214 51.354 27.7083C51.3299 27.6823 51.3178 27.6563 51.2937 27.6302C51.2575 24.2318 50.7508 16.7839 47.2886 11.9271C43.4645 6.57554 37.276 5.65106 34.1878 5.5469C34.1033 5.40367 34.0189 5.26044 33.9224 5.13023L33.8259 5.00002C33.1141 4.02346 32.0405 3.46356 30.8824 3.46356C29.7243 3.46356 28.6507 4.02346 27.951 5.00002L27.8424 5.14325C27.7459 5.27346 27.6615 5.41669 27.577 5.55992C25.8761 5.612 23.5358 5.91148 21.1351 6.84898C18.3485 7.94273 16.1168 9.66148 14.4882 11.9401C11.026 16.7839 10.5193 24.2318 10.4831 27.6302C10.459 27.6563 10.447 27.6823 10.4228 27.7083C8.68569 30.2865 5.92317 44.4922 5.56127 46.3542C3.7035 52.3047 2.02669 58.1641 1.9543 58.4245C1.78542 58.9844 1.99049 59.5964 2.4489 59.9089L15.1517 68.7891C16.1288 69.4662 17.2507 69.8307 18.4209 69.8568H18.4329C18.4812 69.8568 18.5294 69.8568 18.5777 69.8568H43.1388C43.1871 69.8568 43.2353 69.8568 43.2836 69.8568H43.2956C44.4296 69.8177 45.5515 69.4531 46.5528 68.7891L59.2917 59.8958L59.3279 59.8698C59.8105 59.5443 59.9914 58.9583 59.8225 58.4245ZM16.8526 67.1745C16.4907 66.7839 16.2977 66.2761 16.2977 65.7162C16.2977 65.1563 16.5028 64.6354 16.8647 64.2318C17.6006 63.4245 18.831 63.4245 19.591 64.2448C19.9529 64.6354 20.158 65.1432 20.158 65.7031C20.158 66.263 19.9529 66.7839 19.579 67.1875C19.2774 67.5261 18.8672 67.7344 18.4209 67.7734C18.1193 67.7604 17.8177 67.7083 17.5282 67.6432C17.2869 67.5521 17.0456 67.3828 16.8526 67.1745ZM20.9421 62.7604C20.4717 62.2656 19.9288 61.9141 19.3377 61.7318L27.1789 53.8802C27.8424 54.6485 28.723 54.7656 29.2176 54.7656H30.8824H32.5471C33.5363 54.7656 34.1757 54.349 34.5858 53.8802L42.4271 61.7318C41.836 61.9271 41.2931 62.2656 40.8226 62.7604C40.0868 63.5417 39.6887 64.5833 39.6887 65.6901C39.6887 66.4323 39.8696 67.1484 40.2074 67.7865H21.5694C21.9072 67.1615 22.0882 66.4453 22.0882 65.6901C22.0761 64.5833 21.678 63.5417 20.9421 62.7604ZM28.2164 50.7813C28.2164 49.1927 28.904 47.3438 30.8583 47.3438H30.8824H30.9065C32.8608 47.3438 33.5484 49.1927 33.5484 50.7813C33.5484 52.6823 32.897 52.6823 32.5471 52.6823H30.8824H29.2176C28.8678 52.6823 28.2164 52.6823 28.2164 50.7813ZM42.1858 67.1745C41.8239 66.7839 41.6188 66.25 41.6188 65.6901C41.6188 65.1432 41.8239 64.6224 42.1858 64.2318C42.9458 63.4245 44.1642 63.4115 44.9121 64.2188C45.6601 65.0391 45.6721 66.3542 44.9121 67.1615C44.7312 67.3568 44.502 67.513 44.2848 67.6042C43.9833 67.6953 43.6696 67.7344 43.356 67.7604C42.9096 67.7344 42.4995 67.5261 42.1858 67.1745ZM46.0582 62.5261L35.4062 51.849C35.4544 51.5235 35.4785 51.1589 35.4785 50.7682C35.4785 47.513 33.5967 45.2474 30.9065 45.2474H30.8824H30.8583C28.1681 45.2474 26.2862 47.513 26.2862 50.7682C26.2862 51.1589 26.3103 51.5235 26.3586 51.849L15.7066 62.5261C15.1637 59.8698 14.259 56.0026 12.9803 52.6432C11.3155 48.2813 9.44569 45.0651 8.49268 43.5547C9.39743 40.7682 10.266 38.2162 10.9536 36.5495C11.8101 34.4531 12.9803 31.5755 18.1555 31.5755C20.6164 31.5755 22.6069 32.1615 24.3681 32.6823C25.8881 33.125 27.3237 33.5417 28.8316 33.5417H32.9573C34.4652 33.5417 35.9008 33.125 37.4208 32.6823C39.182 32.1615 41.1725 31.5755 43.6334 31.5755C48.7966 31.5755 49.9788 34.4531 50.8353 36.5495C51.4505 38.0469 52.2708 40.4167 53.2841 43.5417C52.3311 45.0521 50.4492 48.2682 48.7845 52.6432C47.5058 56.0026 46.601 59.8698 46.0582 62.5261ZM27.0462 25.0781V31.25C26.3586 31.1068 25.6469 30.8985 24.8748 30.6641C22.9929 30.1172 20.8697 29.4922 18.1555 29.4922C13.9333 29.4922 11.7739 31.237 10.5314 33.0469C11.0863 31.0417 11.593 29.5052 11.9669 28.9453C14.5606 25.1172 20.6043 25.0781 27.0462 25.0781ZM34.7185 25.0781C41.1483 25.0781 47.2042 25.1172 49.7858 28.9453C50.1597 29.5052 50.6664 31.0156 51.2092 32.9948C49.9667 31.1979 47.8074 29.4922 43.6334 29.4922C40.9191 29.4922 38.796 30.1172 36.9141 30.6641C36.13 30.8985 35.4182 31.1068 34.7185 31.25V25.0781ZM45.7566 13.2162C48.302 16.7839 49.074 22.0573 49.2912 25.586C45.7807 23.0208 40.3884 22.9948 34.7185 22.9948V7.66929C37.6258 7.8646 42.6442 8.86721 45.7566 13.2162ZM29.3503 6.43231L29.4468 6.28908C29.7967 5.82033 30.3154 5.5469 30.8703 5.5469C31.4252 5.5469 31.944 5.82033 32.3059 6.3021L32.4024 6.43231C32.6436 6.77085 32.7884 7.20054 32.7884 7.63023V31.4583H28.9764V7.63023C28.9764 7.20054 29.1091 6.77085 29.3503 6.43231ZM16.0082 13.2162C19.1205 8.86721 24.1389 7.8646 27.0462 7.66929V22.9948C21.3764 22.9948 15.9841 23.0208 12.4736 25.586C12.6907 22.0443 13.4628 16.7839 16.0082 13.2162ZM7.69649 46.0547C8.66156 47.7214 9.98854 50.2604 11.1949 53.4375C13.0044 58.1901 14.078 64.2578 14.3314 65.7162L3.9689 58.4766C4.4635 56.7578 6.0438 51.3151 7.69649 46.0547ZM47.4334 65.7292C47.6747 64.2708 48.7483 58.2031 50.5699 53.4375C51.7883 50.2474 53.1153 47.7083 54.0803 46.0417C54.1527 46.2761 54.2251 46.5104 54.3095 46.7578C54.3095 46.7839 54.3216 46.8099 54.3216 46.8229H54.3337C55.3711 50.1432 56.5413 54.0625 57.8321 58.4896L47.4334 65.7292Z" fill="#111111"/>
</g>
<defs>
<clipPath id="clip0">
<rect width="61.7647" height="66.6667" fill="white" transform="translate(0 3.33334)"/>
</clipPath>
</defs>
</svg>
