<svg width="60" height="51" viewBox="0 0 60 51" fill="none" xmlns="http://www.w3.org/2000/svg">
<path d="M19.9131 30.6914C24.2608 30.6914 27.7999 27.1523 27.7999 22.8047C27.7999 18.457 24.2608 14.918 19.9131 14.918C15.5655 14.918 12.0264 18.457 12.0264 22.8047C12.0264 27.1523 15.5655 30.6914 19.9131 30.6914ZM19.9131 16.793C23.2296 16.793 25.9249 19.4883 25.9249 22.8047C25.9249 26.1211 23.2296 28.8164 19.9131 28.8164C16.5967 28.8164 13.9014 26.1211 13.9014 22.8047C13.9014 19.4883 16.5967 16.793 19.9131 16.793Z" fill="#111111"/>
<path d="M40.5733 24.8086C43.1749 24.8086 45.296 22.6875 45.296 20.0859C45.296 17.4844 43.1749 15.3633 40.5733 15.3633C37.9717 15.3633 35.8506 17.4844 35.8506 20.0859C35.8506 22.6875 37.9717 24.8086 40.5733 24.8086ZM40.5733 17.2383C42.1436 17.2383 43.421 18.5156 43.421 20.0859C43.421 21.6562 42.1436 22.9336 40.5733 22.9336C39.003 22.9336 37.7256 21.6562 37.7256 20.0859C37.7256 18.5156 39.003 17.2383 40.5733 17.2383Z" fill="#111111"/>
<path d="M58.4444 8.625C56.5577 5.35547 51.7647 4.13672 44.921 5.15625C40.5499 1.81641 35.2296 0 29.628 0C22.878 0 16.5381 2.625 11.7686 7.39453C6.99909 12.1641 4.38581 18.5039 4.38581 25.2539C4.38581 26.332 4.45612 27.3984 4.58502 28.4531C0.284243 33.8555 -1.05169 38.625 0.835024 41.8945C2.28815 44.4141 5.46393 45.7148 9.97565 45.7148C11.3233 45.7148 12.7881 45.5977 14.3585 45.3633C18.7296 48.7031 24.0499 50.5078 29.6397 50.5078C36.3897 50.5078 42.7296 47.8828 47.4991 43.1133C52.2686 38.3438 54.8936 32.0039 54.8936 25.2539C54.8936 24.1875 54.8233 23.1211 54.6944 22.0781C56.8272 19.3945 58.2921 16.7812 58.9249 14.4141C59.5342 12.1641 59.3702 10.2188 58.4444 8.625ZM29.6397 1.875C41.2647 1.875 50.921 10.3945 52.7139 21.5156C48.7647 26.2383 42.6358 31.2422 35.4756 35.3789C28.3741 39.4805 21.0967 42.293 14.8858 43.3711C9.62409 39.082 6.26081 32.5547 6.26081 25.2539C6.26081 12.3633 16.7491 1.875 29.6397 1.875ZM2.45221 40.957C1.13971 38.6836 2.07721 35.0977 5.03034 30.9727C6.08502 35.5312 8.39362 39.7266 11.7803 43.1133C11.9913 43.3242 12.1905 43.5234 12.4131 43.7227C7.35065 44.2031 3.76471 43.2305 2.45221 40.957ZM43.2569 44.25C42.9053 43.6055 42.6944 42.8672 42.6944 42.1875C42.6944 39.9141 44.5342 38.0742 46.8077 38.0742C47.4756 38.0742 48.1905 38.2734 48.8233 38.6016C47.2999 40.7812 45.4132 42.6914 43.2569 44.25ZM53.0186 25.2539C53.0186 29.543 51.8585 33.5625 49.8311 37.0195C48.8936 36.4922 47.8272 36.1992 46.8077 36.1992C43.503 36.1992 40.8194 38.8828 40.8194 42.1875C40.8194 43.2422 41.1358 44.3438 41.6866 45.2812C38.171 47.4023 34.046 48.6328 29.6397 48.6328C24.9639 48.6328 20.6163 47.25 16.96 44.8828C22.9717 43.582 29.7803 40.8398 36.4131 37.0078C43.1631 33.1172 48.9288 28.5586 52.9952 24.082C53.0069 24.4688 53.0186 24.8672 53.0186 25.2539ZM57.1202 13.9219C56.6514 15.6562 55.6671 17.5664 54.2491 19.5469C53.1944 14.9766 50.8975 10.793 47.4991 7.39453C47.2999 7.19531 47.0889 6.99609 46.878 6.79688C51.9405 6.31641 55.5147 7.28906 56.8272 9.5625C57.4835 10.7109 57.5889 12.1758 57.1202 13.9219Z" fill="#111111"/>
</svg>
