<svg width="24" height="25" viewBox="0 0 24 25" fill="none" xmlns="http://www.w3.org/2000/svg">
<g clip-path="url(#clip0)">
<path d="M11.9522 15.0167C13.6025 15.0167 14.9403 13.672 14.9403 12.0133C14.9403 10.3546 13.6025 9.01001 11.9522 9.01001C10.302 9.01001 8.96417 10.3546 8.96417 12.0133C8.96417 13.672 10.302 15.0167 11.9522 15.0167Z" stroke="white" stroke-width="2" stroke-linecap="round" stroke-linejoin="round"/>
<path d="M19.3227 15.0167C19.1901 15.3186 19.1506 15.6536 19.2092 15.9783C19.2678 16.3031 19.4218 16.6027 19.6514 16.8387L19.7112 16.8987C19.8964 17.0847 20.0433 17.3055 20.1436 17.5486C20.2438 17.7916 20.2954 18.0522 20.2954 18.3153C20.2954 18.5784 20.2438 18.839 20.1436 19.082C20.0433 19.3251 19.8964 19.5459 19.7112 19.7319C19.5262 19.918 19.3065 20.0657 19.0646 20.1665C18.8228 20.2672 18.5636 20.3191 18.3018 20.3191C18.04 20.3191 17.7808 20.2672 17.539 20.1665C17.2972 20.0657 17.0775 19.918 16.8924 19.7319L16.8327 19.6718C16.5979 19.441 16.2998 19.2862 15.9767 19.2273C15.6536 19.1684 15.3204 19.2082 15.0199 19.3415C14.7253 19.4684 14.4741 19.6791 14.2971 19.9477C14.1202 20.2162 14.0252 20.531 14.0239 20.8531V21.0233C14.0239 21.5543 13.814 22.0636 13.4405 22.4391C13.0669 22.8146 12.5602 23.0255 12.0319 23.0255C11.5036 23.0255 10.9969 22.8146 10.6233 22.4391C10.2497 22.0636 10.0399 21.5543 10.0399 21.0233V20.9332C10.0321 20.6019 9.92543 20.2805 9.73359 20.0109C9.54175 19.7413 9.27366 19.536 8.96416 19.4215C8.66375 19.2883 8.3305 19.2485 8.0074 19.3074C7.6843 19.3663 7.38615 19.5211 7.15141 19.7519L7.09165 19.812C6.90664 19.9981 6.68695 20.1458 6.44512 20.2466C6.20329 20.3473 5.94407 20.3992 5.68229 20.3992C5.4205 20.3992 5.16129 20.3473 4.91946 20.2466C4.67763 20.1458 4.45793 19.9981 4.27293 19.812C4.08771 19.626 3.94078 19.4052 3.84054 19.1621C3.74029 18.9191 3.68869 18.6585 3.68869 18.3954C3.68869 18.1323 3.74029 17.8717 3.84054 17.6287C3.94078 17.3856 4.08771 17.1648 4.27293 16.9788L4.33269 16.9188C4.5623 16.6828 4.71634 16.3832 4.77492 16.0584C4.83351 15.7336 4.79396 15.3987 4.66137 15.0967C4.53511 14.8006 4.32547 14.5481 4.05825 14.3702C3.79103 14.1924 3.47789 14.0969 3.15739 14.0956H2.98806C2.45974 14.0956 1.95306 13.8847 1.57949 13.5092C1.20591 13.1337 0.996033 12.6244 0.996033 12.0934C0.996033 11.5624 1.20591 11.0531 1.57949 10.6776C1.95306 10.3021 2.45974 10.0912 2.98806 10.0912H3.07771C3.40738 10.0834 3.72711 9.97618 3.99533 9.78336C4.26356 9.59053 4.46786 9.32107 4.58169 9.00999C4.71427 8.70804 4.75383 8.37309 4.69524 8.04833C4.63666 7.72358 4.48262 7.42391 4.253 7.18796L4.19324 7.1279C4.00803 6.94195 3.8611 6.72112 3.76085 6.47806C3.66061 6.23499 3.60901 5.97445 3.60901 5.71133C3.60901 5.4482 3.66061 5.18766 3.76085 4.94459C3.8611 4.70153 4.00803 4.48071 4.19324 4.29475C4.37825 4.10859 4.59795 3.96091 4.83978 3.86015C5.08161 3.75939 5.34082 3.70753 5.60261 3.70753C5.86439 3.70753 6.12361 3.75939 6.36544 3.86015C6.60726 3.96091 6.82696 4.10859 7.01197 4.29475L7.07173 4.35482C7.30647 4.58561 7.60461 4.74043 7.92772 4.79932C8.25082 4.8582 8.58406 4.81845 8.88448 4.68519H8.96416C9.25875 4.55828 9.50999 4.34757 9.68696 4.07898C9.86393 3.81039 9.9589 3.49565 9.96018 3.17351V3.00332C9.96018 2.4723 10.1701 1.96303 10.5436 1.58754C10.9172 1.21205 11.4239 1.0011 11.9522 1.0011C12.4805 1.0011 12.9872 1.21205 13.3608 1.58754C13.7344 1.96303 13.9442 2.4723 13.9442 3.00332V3.09342C13.9455 3.41556 14.0405 3.7303 14.2175 3.99889C14.3944 4.26748 14.6457 4.47819 14.9403 4.6051C15.2407 4.73836 15.5739 4.77811 15.897 4.71923C16.2201 4.66035 16.5183 4.50552 16.753 4.27473L16.8128 4.21467C16.9978 4.02851 17.2175 3.88082 17.4593 3.78006C17.7011 3.6793 17.9603 3.62744 18.2221 3.62744C18.4839 3.62744 18.7431 3.6793 18.985 3.78006C19.2268 3.88082 19.4465 4.02851 19.6315 4.21467C19.8167 4.40062 19.9636 4.62144 20.0639 4.86451C20.1641 5.10757 20.2157 5.36811 20.2157 5.63124C20.2157 5.89436 20.1641 6.1549 20.0639 6.39797C19.9636 6.64103 19.8167 6.86186 19.6315 7.04781L19.5717 7.10788C19.3421 7.34382 19.1881 7.64349 19.1295 7.96824C19.0709 8.293 19.1105 8.62795 19.243 8.9299V9.00999C19.3693 9.30608 19.5789 9.55861 19.8462 9.73649C20.1134 9.91436 20.4265 10.0098 20.747 10.0111H20.9164C21.4447 10.0111 21.9514 10.222 22.3249 10.5975C22.6985 10.973 22.9084 11.4823 22.9084 12.0133C22.9084 12.5443 22.6985 13.0536 22.3249 13.4291C21.9514 13.8046 21.4447 14.0155 20.9164 14.0155H20.8267C20.5062 14.0168 20.1931 14.1123 19.9258 14.2902C19.6586 14.468 19.449 14.7206 19.3227 15.0167V15.0167Z" stroke="white" stroke-width="2" stroke-linecap="round" stroke-linejoin="round"/>
</g>
<defs>
<clipPath id="clip0">
<rect width="23.9044" height="24.0267" fill="white"/>
</clipPath>
</defs>
</svg>
